<?xml version="1.0" standalone="no"?><!DOCTYPE svg PUBLIC "-//W3C//DTD SVG 1.1//EN" "http://www.w3.org/Graphics/SVG/1.1/DTD/svg11.dtd"><svg t="1495854150121" class="icon" style="" viewBox="0 0 1161 1024" version="1.1" xmlns="http://www.w3.org/2000/svg" p-id="3058" xmlns:xlink="http://www.w3.org/1999/xlink" width="226.7578125" height="200"><defs><style type="text/css"></style></defs><path d="M219.256951 252.696717c0 17.412154-11.755636 31.52832-26.277112 31.52832l-98.441896 0c-14.519855 0-26.275491-14.117787-26.275491-31.52832l0-118.221065C68.262451 117.168878 80.018087 102.99759 94.537942 102.99759l98.441896 0c14.521477 0 26.277112 14.171288 26.277112 31.478061L219.256951 252.696717M1092.251103 252.696717c0 17.412154-11.755636 31.52832-26.239824 31.52832L350.535511 284.225036c-14.521477 0-26.243066-14.117787-26.243066-31.52832l0-118.221065C324.294066 117.168878 336.014034 102.99759 350.535511 102.99759l715.474147 0c14.484188 0 26.241445 14.171288 26.241445 31.478061L1092.251103 252.696717 1092.251103 252.696717M219.256951 571.084593c0 17.413775-11.755636 31.47644-26.277112 31.47644l-98.441896 0c-14.519855 0-26.275491-14.062665-26.275491-31.47644l0-118.170807c0-17.360274 11.755636-31.478061 26.275491-31.478061l98.441896 0c14.521477 0 26.277112 14.119408 26.277112 31.478061L219.256951 571.084593M1092.251103 571.084593c0 17.413775-11.755636 31.47644-26.239824 31.47644L350.535511 602.561033c-14.521477 0-26.243066-14.062665-26.243066-31.47644l0-118.170807c0-17.360274 11.719968-31.478061 26.243066-31.478061l715.474147 0c14.484188 0 26.241445 14.119408 26.241445 31.478061L1092.251103 571.084593 1092.251103 571.084593M219.256951 893.350483c0 17.408911-11.755636 31.474818-26.277112 31.474818l-98.441896 0c-14.519855 0-26.275491-14.065907-26.275491-31.474818l0-118.174049c0-17.358653 11.755636-31.52832 26.275491-31.52832l98.441896 0c14.521477 0 26.277112 14.168046 26.277112 31.52832L219.256951 893.350483M1092.251103 893.256451c0 17.408911-11.755636 31.474818-26.239824 31.474818L350.535511 924.731269c-14.521477 0-26.243066-14.065907-26.243066-31.474818l0-118.174049c0-17.358653 11.719968-31.52832 26.243066-31.52832l715.474147 0c14.484188 0 26.241445 14.168046 26.241445 31.52832L1092.251103 893.256451 1092.251103 893.256451" p-id="3059" fill="#1296db"></path></svg>